<?xml version="1.0" ?><!DOCTYPE svg  PUBLIC '-//W3C//DTD SVG 1.1//EN'  'http://www.w3.org/Graphics/SVG/1.1/DTD/svg11.dtd'><svg height="512px" style="enable-background:new 0 0 512 512;" version="1.1" viewBox="0 0 512 512" width="512px" xml:space="preserve" xmlns="http://www.w3.org/2000/svg" xmlns:xlink="http://www.w3.org/1999/xlink"><style>.cls-1{fill:#93cb52; stroke:#062b31; stroke-miterlimit:10; stroke-width:6.5px;}</style><g id="_x34__x2C_business_x2C_globe_x2C_world_x2C_economic"><g><path class="cls-1" d="M173.412,419.881c21.325,41.113,49.099,64.537,78.588,66.484V362.082c-32.409,0.316-64.862,4.07-97.298,11.252    C159.828,390.117,166.086,405.758,173.412,419.881z"/><path class="cls-1" d="M152.437,365.594c33.291-7.453,66.565-11.369,99.563-11.697v-94.225H138.208    C138.534,297.256,143.446,333.363,152.437,365.594z"/><path class="cls-1" d="M173.412,91.461c-7.326,14.125-13.583,29.766-18.709,46.549c32.436,7.182,64.889,10.934,97.298,11.252V24.979    C222.511,26.926,194.736,50.348,173.412,91.461z"/><path class="cls-1" d="M138.208,251.672H252v-94.225c-33-0.328-66.273-4.244-99.563-11.697C143.445,177.98,138.534,214.088,138.208,251.672z"/><path class="cls-1" d="M166.31,87.777c14.411-27.783,31.82-47.971,50.908-59.553c-57.113,9.898-107.053,41.258-141.351,85.545    c23.646,9.314,47.33,16.803,71.025,22.451C152.191,118.758,158.687,102.477,166.31,87.777z"/><path class="cls-1" d="M144.639,143.943c-24.61-5.918-49.218-13.771-73.718-23.529c-26.615,37.025-42.609,82.307-43.438,131.258h102.725    C130.534,213.514,135.512,176.797,144.639,143.943z"/><path class="cls-1" d="M338.588,91.461c-21.325-41.113-49.1-64.535-78.588-66.482v124.289c32.519-0.246,64.986-3.951,97.341-11.113    C352.207,121.316,345.935,105.627,338.588,91.461z"/><path class="cls-1" d="M166.31,423.564c-7.624-14.697-14.119-30.979-19.417-48.443c-23.696,5.65-47.379,13.139-71.025,22.451    c34.297,44.289,84.237,75.648,141.351,85.547C198.13,471.535,180.721,451.35,166.31,423.564z"/><path class="cls-1" d="M130.208,259.672H27.483c0.829,48.949,16.823,94.23,43.438,131.256c24.499-9.756,49.107-17.609,73.718-23.527    C135.512,334.547,130.534,297.83,130.208,259.672z"/><path class="cls-1" d="M338.588,419.881c7.347-14.164,13.619-29.855,18.753-46.693c-32.354-7.16-64.823-10.865-97.341-11.113v124.291    C289.488,484.418,317.263,460.994,338.588,419.881z"/><path class="cls-1" d="M345.689,87.777c7.645,14.738,14.154,31.068,19.461,48.586c23.735-5.664,47.407-13.193,70.989-22.582    c-34.297-44.295-84.24-75.658-141.358-85.557C313.869,39.807,331.278,59.994,345.689,87.777z"/><path class="cls-1" d="M381.792,251.672h102.726c-0.829-48.949-16.822-94.229-43.437-131.254c-24.433,9.836-49.028,17.738-73.68,23.674    C376.502,176.906,381.467,213.57,381.792,251.672z"/><path class="cls-1" d="M367.401,367.252c24.651,5.934,49.247,13.836,73.68,23.674c26.614-37.025,42.607-82.305,43.437-131.254H381.792    C381.467,297.771,376.502,334.436,367.401,367.252z"/><path class="cls-1" d="M359.604,145.896c-33.211,7.434-66.501,11.305-99.604,11.557v94.219h113.792    C373.467,214.145,368.57,178.09,359.604,145.896z"/><path class="cls-1" d="M373.792,259.672H260v94.217c33.104,0.254,66.394,4.125,99.604,11.559C368.57,333.254,373.467,297.197,373.792,259.672z"/><path class="cls-1" d="M345.689,423.564c-14.411,27.785-31.82,47.971-50.908,59.555c57.118-9.898,107.062-41.264,141.358-85.557    c-23.582-9.389-47.254-16.92-70.989-22.584C359.844,392.496,353.334,408.826,345.689,423.564z"/></g></g><g id="Layer_1"/></svg>